<svg width="64" height="64" viewBox="0 0 64 64" fill="none" xmlns="http://www.w3.org/2000/svg">
<g clip-path="url(#clip0_853_51)">
<rect width="64" height="64" rx="8" fill="#5F5F5F"/>
<path d="M9 2H56C59.3137 2 62 4.68629 62 8V55C62 58.866 58.866 62 55 62H8C4.68629 62 2 59.3137 2 56V9C2 5.13401 5.13401 2 9 2Z" stroke="#252525" stroke-width="4"/>
<rect x="2" y="2" width="28" height="28" fill="white" stroke="white" stroke-width="4"/>
<rect x="32" y="32" width="32" height="32" fill="white"/>
<path d="M10.6289 12.9716V9.54545H25.3817V12.9716H20.0891V27H15.93V12.9716H10.6289Z" fill="#252525"/>
<path d="M39.3523 27V9.54545H46.6307C47.9375 9.54545 49.0313 9.73011 49.9119 10.0994C50.7983 10.4687 51.4631 10.9858 51.9062 11.6506C52.3551 12.3153 52.5795 13.0852 52.5795 13.9602C52.5795 14.625 52.4403 15.2188 52.1619 15.7415C51.8835 16.2585 51.5 16.6875 51.0114 17.0284C50.5227 17.3693 49.9574 17.608 49.3153 17.7443V17.9148C50.0199 17.9489 50.6705 18.1392 51.267 18.4858C51.8693 18.8324 52.3523 19.3153 52.7159 19.9347C53.0795 20.5483 53.2614 21.2756 53.2614 22.1165C53.2614 23.054 53.0227 23.892 52.5455 24.6307C52.0682 25.3636 51.3778 25.9432 50.4744 26.3693C49.571 26.7898 48.4744 27 47.1847 27H39.3523ZM43.571 23.5994H46.179C47.0938 23.5994 47.767 23.4261 48.1989 23.0795C48.6364 22.733 48.8551 22.25 48.8551 21.6307C48.8551 21.1818 48.75 20.7955 48.5398 20.4716C48.3295 20.142 48.0313 19.8892 47.6449 19.7131C47.2585 19.5312 46.7955 19.4403 46.2557 19.4403H43.571V23.5994ZM43.571 16.7216H45.9062C46.3665 16.7216 46.7756 16.6449 47.1335 16.4915C47.4915 16.3381 47.7699 16.1165 47.9688 15.8267C48.1733 15.5369 48.2756 15.1875 48.2756 14.7784C48.2756 14.1932 48.0682 13.733 47.6534 13.3977C47.2386 13.0625 46.679 12.8949 45.9744 12.8949H43.571V16.7216Z" fill="white"/>
<path d="M21.5764 43.2472C21.4798 42.8892 21.3377 42.5739 21.1502 42.3011C20.9627 42.0227 20.7326 41.7869 20.4599 41.5938C20.1871 41.4006 19.8746 41.2557 19.5224 41.1591C19.1701 41.0568 18.7837 41.0057 18.3633 41.0057C17.5167 41.0057 16.7837 41.2102 16.1644 41.6193C15.5508 42.0284 15.0763 42.625 14.7411 43.4091C14.4059 44.1875 14.2383 45.1335 14.2383 46.2472C14.2383 47.3665 14.4002 48.321 14.7241 49.1108C15.0479 49.9006 15.5167 50.5028 16.1303 50.9176C16.744 51.3324 17.4883 51.5398 18.3633 51.5398C19.136 51.5398 19.7894 51.4148 20.3235 51.1648C20.8633 50.9091 21.2724 50.5483 21.5508 50.0824C21.8292 49.6165 21.9684 49.0682 21.9684 48.4375L22.7525 48.5312H18.5082V45.4545H26.0337V47.7642C26.0337 49.3267 25.7014 50.6648 25.0366 51.7784C24.3775 52.892 23.4684 53.7472 22.3093 54.3438C21.1559 54.9403 19.8292 55.2386 18.3292 55.2386C16.6644 55.2386 15.2013 54.8778 13.94 54.1562C12.6786 53.4347 11.6957 52.4062 10.9911 51.071C10.2866 49.7301 9.9343 48.1392 9.9343 46.2983C9.9343 44.8665 10.1474 43.5966 10.5735 42.4886C10.9996 41.375 11.5934 40.4318 12.3548 39.6591C13.1218 38.8864 14.0082 38.3011 15.0138 37.9034C16.0252 37.5057 17.1133 37.3068 18.2781 37.3068C19.2894 37.3068 20.2298 37.4517 21.0991 37.7415C21.9741 38.0312 22.7468 38.4403 23.4173 38.9688C24.0934 39.4972 24.6417 40.125 25.0621 40.8523C25.4826 41.5795 25.744 42.3778 25.8462 43.2472H21.5764Z" fill="white"/>
<path d="M39.3757 55V37.5455H46.5859C47.8928 37.5455 49.0206 37.7812 49.9695 38.2528C50.924 38.7187 51.6598 39.3892 52.1768 40.2642C52.6939 41.1335 52.9524 42.1648 52.9524 43.358C52.9524 44.5682 52.6882 45.5966 52.1598 46.4432C51.6314 47.2841 50.8814 47.9261 49.9098 48.3693C48.9382 48.8068 47.7876 49.0256 46.4581 49.0256H41.8984V45.7017H45.674C46.3104 45.7017 46.8416 45.6193 47.2678 45.4545C47.6996 45.2841 48.0263 45.0284 48.2479 44.6875C48.4695 44.3409 48.5803 43.8977 48.5803 43.358C48.5803 42.8182 48.4695 42.3722 48.2479 42.0199C48.0263 41.6619 47.6996 41.3949 47.2678 41.2188C46.8359 41.0369 46.3047 40.946 45.674 40.946H43.5945V55H39.3757ZM49.2024 47.0227L53.549 55H48.9467L44.6854 47.0227H49.2024Z" fill="#252525"/>
</g>
<defs>
<clipPath id="clip0_853_51">
<rect width="64" height="64" rx="8" fill="white"/>
</clipPath>
</defs>
</svg>
